<?xml version="1.0" encoding="UTF-8" standalone="no"?>
<!DOCTYPE svg PUBLIC "-//W3C//DTD SVG 1.1//EN" "http://www.w3.org/Graphics/SVG/1.1/DTD/svg11.dtd">
<svg width="100%" height="100%" viewBox="0 0 471 104" version="1.1" xmlns="http://www.w3.org/2000/svg" xmlns:xlink="http://www.w3.org/1999/xlink" xml:space="preserve" xmlns:serif="http://www.serif.com/" style="fill-rule:evenodd;clip-rule:evenodd;stroke-linejoin:round;stroke-miterlimit:2;">
    <g transform="matrix(1,0,0,1,-175,-413.278711)">
        <g id="leihlokal" transform="matrix(4.418249,0,0,4.418249,-2250.839654,-1926.02284)">
            <rect x="549.05" y="529.463" width="3.968" height="23.136" style="fill-rule:nonzero;"/>
            <path d="M567.77,544.983C567.77,540.311 567.77,536.087 562.138,536.087C556.602,536.087 555.93,540.279 555.93,544.695C555.93,549.207 556.282,552.983 561.914,552.983C565.818,552.983 567.514,551.223 567.674,547.255L563.898,547.255C563.898,548.759 563.61,550.391 561.914,550.391C560.378,550.391 559.866,549.175 559.866,546.423L559.866,544.983L567.77,544.983ZM563.866,542.775L559.866,542.775C559.866,542.007 559.898,541.431 559.994,540.791C560.186,539.511 560.698,538.679 561.978,538.679C563.194,538.679 563.61,539.479 563.77,540.567C563.898,541.335 563.866,542.039 563.866,542.775Z" style="fill-rule:nonzero;"/>
            <path d="M574.554,533.143L574.554,529.719L570.586,529.719L570.586,533.143L574.554,533.143ZM574.554,552.599L574.554,536.471L570.586,536.471L570.586,552.599L574.554,552.599Z" style="fill-rule:nonzero;"/>
            <path d="M590.074,552.599L590.074,541.015C590.074,537.783 589.082,536.087 586.01,536.087C584.282,536.087 583.002,536.823 582.042,538.167L582.042,529.463L578.074,529.463L578.074,552.599L582.042,552.599L582.042,542.199C582.042,540.567 582.65,538.679 584.25,538.679C585.978,538.679 586.106,540.023 586.106,541.815L586.106,552.599L590.074,552.599Z" style="fill-rule:nonzero;"/>
            <rect x="593.818" y="548.695" width="3.52" height="3.904" style="fill:rgb(89, 122, 216);fill-rule:nonzero;"/>
            <rect x="601.114" y="529.463" width="3.968" height="23.136" style="fill-rule:nonzero;"/>
            <path d="M620.346,544.055C620.346,539.319 619.866,536.087 614.298,536.087C608.698,536.087 607.994,540.055 607.994,544.567C607.994,549.495 608.41,552.983 614.202,552.983C619.834,552.983 620.346,549.335 620.346,544.055ZM616.314,546.391C616.314,548.023 616.346,550.391 614.202,550.391C611.898,550.391 611.994,547.831 611.994,546.199L611.994,542.999C611.994,541.399 611.994,538.679 614.234,538.679C616.314,538.679 616.314,540.855 616.314,542.935L616.314,546.391Z" style="fill-rule:nonzero;"/>
            <path d="M635.866,552.599L631.386,543.351L635.354,536.471L631.034,536.471L627.322,543.479L631.45,552.599L635.866,552.599ZM627.226,552.599L627.226,529.463L623.258,529.463L623.258,552.599L627.226,552.599Z" style="fill-rule:nonzero;"/>
            <path d="M648.506,552.599C648.282,550.807 648.25,549.015 648.25,547.223L648.25,541.591C648.25,537.751 646.938,536.087 642.938,536.087C639.898,536.087 637.018,537.015 637.018,540.663L637.018,540.951L640.922,540.951L640.922,540.695C640.922,539.511 641.37,538.551 642.746,538.551C644.346,538.551 644.41,540.119 644.41,541.623L644.41,542.455C640.122,542.455 636.602,542.839 636.602,548.087C636.602,550.711 637.626,552.919 640.57,552.919C642.362,552.919 643.706,552.215 644.602,550.775L644.666,552.599L648.506,552.599ZM644.41,546.647C644.41,548.023 644.122,550.327 642.266,550.327C640.858,550.327 640.57,548.951 640.57,547.799C640.57,545.655 641.594,544.823 643.706,544.823L644.41,544.823L644.41,546.647Z" style="fill-rule:nonzero;"/>
            <rect x="651.674" y="529.463" width="3.968" height="23.136" style="fill-rule:nonzero;"/>
        </g>
    </g>
</svg>
