<?xml version="1.0" encoding="UTF-8" standalone="no"?>
<!DOCTYPE svg PUBLIC "-//W3C//DTD SVG 1.1//EN" "http://www.w3.org/Graphics/SVG/1.1/DTD/svg11.dtd">
<svg width="100%" height="100%" viewBox="0 0 808 808" version="1.1" xmlns="http://www.w3.org/2000/svg" xmlns:xlink="http://www.w3.org/1999/xlink" xml:space="preserve" xmlns:serif="http://www.serif.com/" style="fill-rule:evenodd;clip-rule:evenodd;stroke-linejoin:round;stroke-miterlimit:2;">
    <g transform="matrix(1,0,0,1,-2124.144366,-837.056709)">
        <g transform="matrix(1,0,0,1,-31.781858,0)">
            <g id="seal" transform="matrix(2.321562,-1.340355,1.340355,2.321562,856.664005,1605.558753)">
                <g transform="matrix(1,-0,0,1,-490.537612,-170.311948)">
                    <g transform="matrix(2.840648,0,0,2.840648,-5646.862965,-86.223178)">
                        <g transform="matrix(4.166667,0,0,4.166667,2401.433333,192.992262)">
                            <path d="M0,-7.737C0,-6.176 -0.541,-4.853 -1.623,-3.768C-2.703,-2.684 -4.027,-2.141 -5.592,-2.141C-7.155,-2.141 -8.479,-2.684 -9.56,-3.768C-10.641,-4.853 -11.182,-6.176 -11.182,-7.737L-13.544,-7.737C-13.544,-5.575 -12.781,-3.744 -11.255,-2.247C-9.729,-0.749 -7.842,0 -5.592,0C-3.342,0 -1.453,-0.749 0.072,-2.247C1.598,-3.744 2.361,-5.575 2.361,-7.737L0,-7.737Z" style="fill:rgb(89, 122, 216);fill-rule:nonzero;"/>
                        </g>
                        <g transform="matrix(4.166667,0,0,4.166667,2360.393333,140.059192)">
                            <path d="M0,2.583C0.375,2.583 0.684,2.461 0.924,2.215C1.166,1.971 1.287,1.662 1.287,1.292C1.287,0.921 1.166,0.613 0.924,0.368C0.684,0.123 0.375,0 0,0C-0.373,0 -0.682,0.123 -0.924,0.368C-1.164,0.613 -1.285,0.921 -1.285,1.292C-1.285,1.662 -1.164,1.971 -0.924,2.215C-0.682,2.461 -0.373,2.583 0,2.583" style="fill:rgb(89, 122, 216);fill-rule:nonzero;"/>
                        </g>
                        <g transform="matrix(4.166667,0,0,4.166667,2395.875417,140.059192)">
                            <path d="M0,2.583C0.373,2.583 0.682,2.461 0.924,2.215C1.164,1.971 1.285,1.662 1.285,1.292C1.285,0.921 1.164,0.613 0.924,0.368C0.682,0.123 0.373,0 0,0C-0.375,0 -0.684,0.123 -0.924,0.368C-1.166,0.613 -1.287,0.921 -1.287,1.292C-1.287,1.662 -1.166,1.971 -0.924,2.215C-0.684,2.461 -0.375,2.583 0,2.583" style="fill:rgb(89, 122, 216);fill-rule:nonzero;"/>
                        </g>
                    </g>
                </g>
                <g transform="matrix(-0.1324,0.279463,-0.279463,-0.1324,1301.391146,-353.356743)">
                    <path d="M2823.537,922.239L2830.545,913.045L2809.857,897.278L2853.514,839.996L2841.193,830.606L2790.529,897.082L2823.537,922.239Z" style="fill:rgb(89, 122, 216);fill-rule:nonzero;"/>
                    <path d="M2865.977,963.727L2874.218,955.62L2853.707,934.77L2872.496,916.285L2890.9,934.992L2898.976,927.047L2880.573,908.34L2896.807,892.369L2916.67,912.56L2924.911,904.452L2894.266,873.301L2834.683,931.916L2865.977,963.727Z" style="fill:rgb(89, 122, 216);fill-rule:nonzero;"/>
                    <path d="M2885.598,988.685L2951.464,937.23L2941.927,925.023L2876.061,976.478L2885.598,988.685Z" style="fill:rgb(89, 122, 216);fill-rule:nonzero;"/>
                    <path d="M2925.052,1051.154L2997.311,1009.147L2989.525,995.755L2959.742,1013.069L2948.703,994.08L2978.486,976.765L2970.701,963.373L2898.442,1005.38L2906.228,1018.772L2938.909,999.773L2949.948,1018.762L2917.267,1037.761L2925.052,1051.154Z" style="fill:rgb(89, 122, 216);fill-rule:nonzero;"/>
                    <path d="M2948.116,1109.3L2958.949,1105.264L2949.868,1080.89L3017.357,1055.745L3011.948,1041.229L2933.626,1070.41L2948.116,1109.3Z" style="fill:rgb(89, 122, 216);fill-rule:nonzero;"/>
                    <path d="M3002.947,1165.484C3028.846,1159.998 3046.441,1156.035 3040.692,1128.893C3035.087,1102.428 3016.372,1105.565 2991.265,1110.883C2967.515,1115.913 2950.225,1120.757 2955.662,1146.429C2961.387,1173.459 2979.311,1170.49 3002.947,1165.484ZM3001.815,1149.535C2981.231,1153.894 2969.332,1156.296 2966.841,1144.534C2964.326,1132.659 2975.725,1130.127 2996.195,1125.791C3013.612,1122.102 3027.07,1119.252 3029.609,1131.24C3032.148,1143.228 3019.457,1145.798 3001.815,1149.535Z" style="fill:rgb(89, 122, 216);fill-rule:nonzero;"/>
                    <path d="M2966.682,1246.798L3012.387,1221.974L3050.202,1243.39L3049.732,1225.94L3011.048,1206.629L2966.206,1229.117L2966.682,1246.798ZM2965.62,1207.391L3049.171,1205.139L3048.754,1189.654L2965.203,1191.906L2965.62,1207.391Z" style="fill:rgb(89, 122, 216);fill-rule:nonzero;"/>
                    <path d="M2958.201,1316.733L3044.07,1305.053L3046.704,1285.228L2966.927,1251.069L2964.917,1266.196L2983.285,1273.652L2979.965,1298.634L2960.287,1301.033L2958.201,1316.733ZM2991.607,1297.032L2994.104,1278.238L3033.193,1292.995L2991.607,1297.032Z" style="fill:rgb(89, 122, 216);fill-rule:nonzero;"/>
                    <path d="M2942.219,1368.84L2953.267,1372.242L2960.922,1347.382L3029.754,1368.577L3034.312,1353.772L2954.432,1329.176L2942.219,1368.84Z" style="fill:rgb(89, 122, 216);fill-rule:nonzero;"/>
                    <path d="M2895.972,1459.156L2947.874,1462.516L2968.453,1500.794L2977.357,1485.779L2954.921,1448.82L2904.994,1443.942L2895.972,1459.156ZM2916.079,1425.249L2987.971,1467.881L2995.872,1454.557L2923.981,1411.924L2916.079,1425.249Z" style="fill:rgb(89, 122, 216);fill-rule:nonzero;"/>
                    <path d="M2851.44,1513.765L2930.284,1549.73L2943.095,1534.373L2893.874,1462.9L2884.098,1474.617L2895.65,1490.728L2879.506,1510.079L2861.586,1501.603L2851.44,1513.765ZM2890.205,1514.94L2902.35,1500.382L2927.524,1533.728L2890.205,1514.94Z" style="fill:rgb(89, 122, 216);fill-rule:nonzero;"/>
                    <path d="M2802.372,1555.653C2805.223,1557.787 2807.943,1560.484 2810.575,1563.255L2817.089,1570.466C2826.504,1581.127 2831.55,1584.436 2840.389,1578.063C2833.47,1586.9 2835.902,1594.823 2842.597,1602.787C2854.573,1617.035 2864.471,1612.641 2875.621,1603.268L2895.709,1586.383L2841.928,1522.402L2830.07,1532.37L2853.13,1559.803L2848.44,1563.745C2840.741,1570.217 2837.777,1569.386 2831.072,1562.487C2828.589,1559.893 2826.12,1557.135 2823.963,1554.569C2821.122,1551.369 2818.044,1548.067 2814.761,1545.239L2802.372,1555.653ZM2853.828,1591.535C2847.058,1583.482 2848.031,1578.889 2855.818,1572.343L2860.42,1568.475L2876.561,1587.678L2870.898,1592.439C2864.615,1597.72 2859.406,1598.172 2853.828,1591.535Z" style="fill:rgb(89, 122, 216);fill-rule:nonzero;"/>
                    <path d="M2751.427,1587.334L2757.354,1597.26L2779.686,1583.925L2816.609,1645.762L2829.909,1637.82L2787.06,1566.058L2751.427,1587.334Z" style="fill:rgb(89, 122, 216);fill-rule:nonzero;"/>
                    <path d="M2702.824,1632.193C2708.138,1644.882 2716.26,1646.619 2728.829,1648.5L2735.242,1649.449C2742.58,1650.512 2749.083,1651.674 2751.673,1657.859C2753.95,1663.297 2752.269,1668.262 2746.618,1670.628C2739.473,1673.62 2736.229,1669.464 2733.862,1663.813L2733.059,1661.893L2718.877,1667.832L2720.127,1670.818C2726.244,1685.427 2736.278,1687.241 2750.354,1681.346C2764.216,1675.541 2771.873,1665.693 2765.577,1650.657C2760.531,1638.608 2751.91,1636.578 2741.147,1634.819L2733.764,1633.649C2725.456,1632.366 2719.497,1631.603 2716.728,1624.991C2714.138,1618.807 2716.077,1613.859 2722.262,1611.269C2730.792,1607.697 2734.414,1613.951 2737.227,1620.669L2737.629,1621.628L2752.131,1615.556L2751.773,1614.703C2744.54,1597.428 2735.587,1593.407 2717.992,1600.775C2703.81,1606.714 2696.171,1616.304 2702.824,1632.193Z" style="fill:rgb(89, 122, 216);fill-rule:nonzero;"/>
                    <path d="M2628.7,1628.947C2630.268,1632.145 2631.463,1635.784 2632.546,1639.449L2635.066,1648.834C2638.6,1662.611 2641.589,1667.854 2652.36,1666.2C2642.178,1670.921 2640.739,1679.083 2643.078,1689.221C2647.261,1707.357 2658.075,1707.948 2672.268,1704.674L2697.839,1698.775L2679.052,1617.332L2663.958,1620.814L2672.013,1655.734L2666.043,1657.112C2656.242,1659.372 2653.981,1657.284 2651.149,1648.09C2650.118,1644.65 2649.174,1641.071 2648.42,1637.805C2647.346,1633.663 2646.107,1629.322 2644.47,1625.31L2628.7,1628.947ZM2658.198,1684.31C2655.834,1674.059 2658.789,1670.412 2668.702,1668.125L2674.559,1666.774L2680.198,1691.218L2672.988,1692.881C2664.991,1694.726 2660.147,1692.758 2658.198,1684.31Z" style="fill:rgb(89, 122, 216);fill-rule:nonzero;"/>
                    <path d="M2557.917,1661.539L2560.771,1717.765L2575.78,1717.003L2573.031,1662.855C2572.574,1653.849 2572.497,1643.204 2584.273,1642.606C2596.165,1642.003 2596.855,1653.311 2597.306,1662.201L2600.026,1715.773L2615.266,1714.999L2612.47,1659.927C2611.515,1641.108 2605.058,1630.207 2583.93,1631.28C2563.61,1632.311 2556.95,1642.488 2557.917,1661.539Z" style="fill:rgb(89, 122, 216);fill-rule:nonzero;"/>
                    <path d="M2483.617,1626.481L2472.673,1709.343L2488.03,1711.371L2492.541,1677.218L2514.317,1680.094L2509.806,1714.247L2525.163,1716.276L2536.108,1633.414L2520.75,1631.385L2515.8,1668.862L2494.025,1665.986L2498.975,1628.509L2483.617,1626.481Z" style="fill:rgb(89, 122, 216);fill-rule:nonzero;"/>
                    <path d="M2420.504,1608.123L2417.025,1619.147L2444.917,1627.949L2436.985,1653.085L2411.959,1645.188L2408.55,1655.992L2433.575,1663.889L2426.722,1685.607L2399.712,1677.084L2396.233,1688.108L2437.905,1701.259L2463.058,1621.552L2420.504,1608.123Z" style="fill:rgb(89, 122, 216);fill-rule:nonzero;"/>
                    <path d="M2343.603,1599.052L2338.387,1608.453L2362.041,1621.578L2367.258,1612.177L2343.603,1599.052Z" style="fill:rgb(89, 122, 216);fill-rule:nonzero;"/>
                    <path d="M2283.564,1521.409L2275.991,1530.143L2295.644,1547.182L2248.464,1601.599L2260.169,1611.747L2314.921,1548.595L2283.564,1521.409Z" style="fill:rgb(89, 122, 216);fill-rule:nonzero;"/>
                    <path d="M2243.739,1477.23L2235.002,1484.799L2254.153,1506.905L2234.231,1524.164L2217.048,1504.33L2208.486,1511.748L2225.669,1531.582L2208.456,1546.494L2189.91,1525.088L2181.173,1532.657L2209.786,1565.685L2272.958,1510.956L2243.739,1477.23Z" style="fill:rgb(89, 122, 216);fill-rule:nonzero;"/>
                    <path d="M2225.794,1451.16L2156.809,1498.35L2165.555,1511.136L2234.54,1463.946L2225.794,1451.16Z" style="fill:rgb(89, 122, 216);fill-rule:nonzero;"/>
                    <path d="M2190.385,1386.314L2115.601,1423.641L2122.52,1437.501L2153.343,1422.116L2163.153,1441.769L2132.329,1457.154L2139.247,1471.014L2214.03,1433.687L2207.112,1419.827L2173.289,1436.709L2163.48,1417.056L2197.303,1400.174L2190.385,1386.314Z" style="fill:rgb(89, 122, 216);fill-rule:nonzero;"/>
                    <path d="M2170.266,1323.761L2159.183,1327.052L2167.508,1355.09L2142.241,1362.592L2134.771,1337.435L2123.911,1340.66L2131.38,1365.817L2109.548,1372.299L2101.487,1345.147L2090.404,1348.438L2102.842,1390.329L2182.967,1366.539L2170.266,1323.761Z" style="fill:rgb(89, 122, 216);fill-rule:nonzero;"/>
                    <path d="M2159.563,1251.477L2076.597,1261.605L2078.25,1275.145L2147.79,1266.657L2080.659,1294.883L2083.475,1317.948L2166.44,1307.82L2164.788,1294.28L2095.248,1302.768L2162.378,1274.542L2159.563,1251.477Z" style="fill:rgb(89, 122, 216);fill-rule:nonzero;"/>
                    <path d="M2145.583,1148.659C2131.945,1146.858 2126.353,1152.999 2118.397,1162.909L2114.347,1167.971C2109.732,1173.775 2105.453,1178.807 2098.806,1177.929C2092.961,1177.157 2089.518,1173.204 2090.32,1167.13C2091.335,1159.451 2096.559,1158.742 2102.633,1159.544L2104.696,1159.817L2106.709,1144.574L2103.5,1144.15C2087.799,1142.076 2081.178,1149.83 2079.179,1164.959C2077.212,1179.858 2081.863,1191.433 2098.023,1193.568C2110.973,1195.278 2117.069,1188.854 2124.011,1180.442L2128.74,1174.653C2134.034,1168.123 2137.695,1163.359 2144.8,1164.298C2151.448,1165.176 2154.745,1169.343 2153.867,1175.99C2152.656,1185.159 2145.429,1185.137 2138.209,1184.183L2137.178,1184.047L2135.119,1199.634L2136.036,1199.755C2154.602,1202.207 2162.586,1196.498 2165.084,1177.588C2167.097,1162.345 2162.66,1150.914 2145.583,1148.659Z" style="fill:rgb(89, 122, 216);fill-rule:nonzero;"/>
                    <path d="M2114.655,1070.936L2103.56,1067.688L2088.362,1119.612L2099.457,1122.86L2104.88,1104.331L2174.002,1124.562L2178.353,1109.695L2109.232,1089.464L2114.655,1070.936Z" style="fill:rgb(89, 122, 216);fill-rule:nonzero;"/>
                    <path d="M2211.403,1030.673L2125.968,1016.161L2117.53,1034.293L2183.456,1090.729L2189.894,1076.894L2174.593,1064.291L2185.225,1041.442L2204.721,1045.032L2211.403,1030.673ZM2173.637,1039.492L2165.638,1056.681L2132.744,1030.918L2173.637,1039.492Z" style="fill:rgb(89, 122, 216);fill-rule:nonzero;"/>
                    <path d="M2181.776,945.807L2172.14,939.42L2142.25,984.517L2151.886,990.904L2162.552,974.812L2222.585,1014.6L2231.143,1001.688L2171.11,961.899L2181.776,945.807Z" style="fill:rgb(89, 122, 216);fill-rule:nonzero;"/>
                    <path d="M2228.148,892.503L2219.559,884.766L2183.348,924.963L2191.937,932.701L2204.859,918.357L2258.369,966.561L2268.737,955.052L2215.227,906.847L2228.148,892.503Z" style="fill:rgb(89, 122, 216);fill-rule:nonzero;"/>
                    <path d="M2361.578,880.247L2316.157,854.907L2314.025,811.501L2299.533,821.232L2303.908,864.246L2346.893,890.106L2361.578,880.247ZM2328.85,902.222L2282.257,832.832L2269.397,841.467L2315.989,910.857L2328.85,902.222Z" style="fill:rgb(89, 122, 216);fill-rule:nonzero;"/>
                    <path d="M2425.117,850.164L2369.404,783.788L2351.233,792.143L2364.933,877.837L2378.798,871.462L2375.297,851.95L2398.195,841.422L2410.728,856.78L2425.117,850.164ZM2390.626,832.432L2373.4,840.353L2365.014,799.421L2390.626,832.432Z" style="fill:rgb(89, 122, 216);fill-rule:nonzero;"/>
                    <path d="M2481.667,806.894L2467.583,752.385L2453.032,756.144L2466.595,808.639C2468.851,817.369 2471.064,827.782 2459.647,830.732C2448.119,833.711 2445.173,822.771 2442.946,814.152L2429.527,762.217L2414.753,766.035L2428.547,819.424C2433.261,837.669 2441.775,847.051 2462.258,841.759C2481.957,836.669 2486.438,825.362 2481.667,806.894Z" style="fill:rgb(89, 122, 216);fill-rule:nonzero;"/>
                    <path d="M2544.017,755.265L2543.061,743.744L2501.816,747.166L2508.726,830.461L2524.049,829.19L2520.952,791.862L2545.607,789.817L2544.67,778.527L2520.016,780.572L2518.095,757.415L2544.017,755.265Z" style="fill:rgb(89, 122, 216);fill-rule:nonzero;"/>
                    <path d="M2609.269,829.366L2609.946,817.826L2580.749,816.112L2582.294,789.8L2608.491,791.337L2609.154,780.028L2582.957,778.49L2584.292,755.755L2612.566,757.415L2613.244,745.874L2569.621,743.314L2564.723,826.751L2609.269,829.366Z" style="fill:rgb(89, 122, 216);fill-rule:nonzero;"/>
                    <path d="M2680.781,843.801L2699.408,762.322L2686.11,759.282L2670.497,827.576L2666.726,754.85L2644.074,749.672L2625.447,831.151L2638.745,834.191L2654.358,765.897L2658.129,838.623L2680.781,843.801Z" style="fill:rgb(89, 122, 216);fill-rule:nonzero;"/>
                    <path d="M2762.831,850.687L2767.544,841.024L2743.231,829.165L2738.518,838.827L2762.831,850.687Z" style="fill:rgb(89, 122, 216);fill-rule:nonzero;"/>
                </g>
            </g>
        </g>
    </g>
</svg>
