<?xml version="1.0" encoding="UTF-8" standalone="no"?>
<!DOCTYPE svg PUBLIC "-//W3C//DTD SVG 1.1//EN" "http://www.w3.org/Graphics/SVG/1.1/DTD/svg11.dtd">
<svg width="100%" height="100%" viewBox="0 0 234 187" version="1.1" xmlns="http://www.w3.org/2000/svg" xmlns:xlink="http://www.w3.org/1999/xlink" xml:space="preserve" xmlns:serif="http://www.serif.com/" style="fill-rule:evenodd;clip-rule:evenodd;stroke-linejoin:round;stroke-miterlimit:2;">
    <g transform="matrix(1,0,0,1,-142,-107)">
        <g id="smile" transform="matrix(3.518405,0,0,3.518405,-8108.660665,-385.785016)">
            <g transform="matrix(4.166667,0,0,4.166667,2401.433333,192.992262)">
                <path d="M0,-7.737C0,-6.176 -0.541,-4.853 -1.623,-3.768C-2.703,-2.684 -4.027,-2.141 -5.592,-2.141C-7.155,-2.141 -8.479,-2.684 -9.56,-3.768C-10.641,-4.853 -11.182,-6.176 -11.182,-7.737L-13.544,-7.737C-13.544,-5.575 -12.781,-3.744 -11.255,-2.247C-9.729,-0.749 -7.842,0 -5.592,0C-3.342,0 -1.453,-0.749 0.072,-2.247C1.598,-3.744 2.361,-5.575 2.361,-7.737L0,-7.737Z" style="fill:rgb(89, 122, 216);fill-rule:nonzero;"/>
            </g>
            <g transform="matrix(4.166667,0,0,4.166667,2360.393333,140.059192)">
                <path d="M0,2.583C0.375,2.583 0.684,2.461 0.924,2.215C1.166,1.971 1.287,1.662 1.287,1.292C1.287,0.921 1.166,0.613 0.924,0.368C0.684,0.123 0.375,0 0,0C-0.373,0 -0.682,0.123 -0.924,0.368C-1.164,0.613 -1.285,0.921 -1.285,1.292C-1.285,1.662 -1.164,1.971 -0.924,2.215C-0.682,2.461 -0.373,2.583 0,2.583" style="fill:rgb(89, 122, 216);fill-rule:nonzero;"/>
            </g>
            <g transform="matrix(4.166667,0,0,4.166667,2395.875417,140.059192)">
                <path d="M0,2.583C0.373,2.583 0.682,2.461 0.924,2.215C1.164,1.971 1.285,1.662 1.285,1.292C1.285,0.921 1.164,0.613 0.924,0.368C0.682,0.123 0.373,0 0,0C-0.375,0 -0.684,0.123 -0.924,0.368C-1.166,0.613 -1.287,0.921 -1.287,1.292C-1.287,1.662 -1.166,1.971 -0.924,2.215C-0.684,2.461 -0.375,2.583 0,2.583" style="fill:rgb(89, 122, 216);fill-rule:nonzero;"/>
            </g>
        </g>
    </g>
</svg>
